<svg xmlns="http://www.w3.org/2000/svg" width="16" height="16" fill="currentColor" style=""><rect id="backgroundrect" width="100%" height="100%" x="0" y="0" fill="none" stroke="none"/>
  
  
<g class="currentLayer" style=""><title>Layer 1</title><path d="M5.990547445051351,12.089420476866536 a0.7204645398131315,0.7169983957666145 0 0 1 0.7204645398131315,-0.7169983957666145 h4.322787238878789 a0.7204645398131315,0.7169983957666145 0 0 1 0,1.4339967915332288 h-4.322787238878789 A0.7204645398131315,0.7169983957666145 0 0 1 5.990547445051351,12.089420476866536 zM2.898313640173391,5.128800050764245 a0.7204645398131315,0.7169983957666145 0 1 0 -1.0201777883753944,1.0152697284055265 L4.251346045942453,8.504428498033462 L1.8781358517979974,10.86478721689716 a0.7204645398131315,0.7169983957666145 0 1 0 1.0201777883753944,1.0152697284055265 l2.8818581592525265,-2.867993583066457 a0.7204645398131315,0.7169983957666145 0 0 0 0,-1.0152697284055265 l-2.8818581592525265,-2.867993583066457 z" id="svg_1" class=""/><path d="M1.4152047038078308,1.5847952961921692 a2,2 0 0 0 -2,2 v10 a2,2 0 0 0 2,2 h12 a2,2 0 0 0 2,-2 V3.584795296192169 a2,2 0 0 0 -2,-2 H1.4152047038078308 zm12,1 a1,1 0 0 1 1,1 v10 a1,1 0 0 1 -1,1 H1.4152047038078308 a1,1 0 0 1 -1,-1 V3.584795296192169 a1,1 0 0 1 1,-1 h12 z" id="svg_2" class=""/></g></svg>